<svg xmlns="http://www.w3.org/2000/svg" viewBox="0 0 1024 1024" role="img" aria-label="NOD Prestige">
  <defs>
    <radialGradient id="halo" cx="50%" cy="20%" r="70%">
      <stop offset="0" stop-color="#4a3814"/>
      <stop offset=".42" stop-color="#11100e"/>
      <stop offset="1" stop-color="#050505"/>
    </radialGradient>
    <linearGradient id="gold" x1="220" x2="800" y1="220" y2="890" gradientUnits="userSpaceOnUse">
      <stop stop-color="#fff2b4"/>
      <stop offset=".28" stop-color="#d4af37"/>
      <stop offset=".62" stop-color="#8f6820"/>
      <stop offset="1" stop-color="#f4d982"/>
    </linearGradient>
    <linearGradient id="line" x1="0" x2="1">
      <stop stop-color="#3d2f13"/>
      <stop offset=".5" stop-color="#f0d889"/>
      <stop offset="1" stop-color="#3d2f13"/>
    </linearGradient>
  </defs>
  <rect width="1024" height="1024" fill="url(#halo)"/>
  <path d="M124 248C290 90 734 90 900 248" fill="none" stroke="url(#line)" stroke-width="6" opacity=".8"/>
  <path d="M104 816C286 924 738 924 920 816" fill="none" stroke="url(#line)" stroke-width="6" opacity=".55"/>
  <g font-family="Bodoni 72, Didot, Georgia, serif" font-weight="700" text-anchor="middle">
    <text x="512" y="208" font-size="86" fill="#f5f1e8" letter-spacing="-4">NOD</text>
    <text x="512" y="270" font-size="24" fill="#d4af37" letter-spacing="8">AWARDS SEASON</text>
  </g>
  <g transform="translate(0 10)">
    <path d="M350 448H234c-34 0-62 28-62 62v66c0 96 78 174 174 174h34v-82h-34c-51 0-92-41-92-92v-46h96z" fill="none" stroke="url(#gold)" stroke-width="30" stroke-linejoin="round"/>
    <path d="M674 448h116c34 0 62 28 62 62v66c0 96-78 174-174 174h-34v-82h34c51 0 92-41 92-92v-46h-96z" fill="none" stroke="url(#gold)" stroke-width="30" stroke-linejoin="round"/>
    <path d="M342 394h340v218c0 94-76 170-170 170S342 706 342 612z" fill="url(#gold)" stroke="#050505" stroke-width="18" stroke-linejoin="round"/>
    <path d="M326 382l58-124 92 82 36-130 36 130 92-82 58 124z" fill="url(#gold)" stroke="#050505" stroke-width="18" stroke-linejoin="round"/>
    <rect x="430" y="770" width="164" height="82" rx="8" fill="url(#gold)" stroke="#050505" stroke-width="16"/>
    <path d="M342 868h340" stroke="url(#gold)" stroke-width="34" stroke-linecap="round"/>
    <path d="M562 486v132c0 44-35 79-79 79s-79-35-79-79 35-79 79-79c17 0 33 5 46 15V454h126v64z" fill="#050505"/>
  </g>
  <circle cx="512" cy="516" r="342" fill="none" stroke="#d4af37" stroke-width="5" opacity=".35"/>
</svg>
