<svg xmlns="http://www.w3.org/2000/svg" viewBox="0 0 1024 1024" role="img" aria-label="NOD">
  <defs>
    <pattern id="grid" width="34" height="34" patternUnits="userSpaceOnUse">
      <path d="M34 0H0V34" fill="none" stroke="#d8d2c3" stroke-width="2"/>
    </pattern>
    <linearGradient id="cup" x1="272" x2="752" y1="440" y2="872" gradientUnits="userSpaceOnUse">
      <stop stop-color="#caff13"/>
      <stop offset=".54" stop-color="#a9f20f"/>
      <stop offset="1" stop-color="#78c80d"/>
    </linearGradient>
  </defs>
  <rect width="1024" height="1024" fill="#efeee6"/>
  <rect x="82" y="86" width="840" height="844" fill="#e11d48"/>
  <rect x="54" y="54" width="840" height="844" fill="#f2efe3" stroke="#000" stroke-width="24"/>
  <rect x="78" y="78" width="792" height="796" fill="url(#grid)" opacity=".95"/>
  <g font-family="Impact, Arial Black, sans-serif" font-weight="900" letter-spacing="-8">
    <text x="106" y="220" font-size="116" fill="#000">NOMINEES</text>
    <g transform="translate(690 126) rotate(-3)">
      <rect width="142" height="106" fill="#e11d48" stroke="#000" stroke-width="10"/>
      <text x="71" y="78" text-anchor="middle" font-size="74" fill="#000" letter-spacing="-5">or</text>
    </g>
    <text x="106" y="334" font-size="116" fill="#000">DENOMINEES</text>
  </g>
  <rect x="126" y="392" width="694" height="82" fill="#b5f42b" stroke="#000" stroke-width="14"/>
  <g transform="translate(0 16)">
    <path d="M352 570H238c-34 0-62 28-62 62v60c0 86 70 156 156 156h36v-78h-36c-43 0-78-35-78-78v-44h98z" fill="#b5f42b" stroke="#000" stroke-width="18" stroke-linejoin="round"/>
    <path d="M672 570h114c34 0 62 28 62 62v60c0 86-70 156-156 156h-36v-78h36c43 0 78-35 78-78v-44h-98z" fill="#b5f42b" stroke="#000" stroke-width="18" stroke-linejoin="round"/>
    <path d="M340 528h344v202c0 86-70 156-156 156h-32c-86 0-156-70-156-156z" fill="url(#cup)" stroke="#000" stroke-width="20" stroke-linejoin="round"/>
    <path d="M344 528l56-122 92 82 78-120 78 120 92-82 56 122z" fill="#b5f42b" stroke="#000" stroke-width="18" stroke-linejoin="round"/>
    <path d="M432 886h160v72H432z" fill="#b5f42b" stroke="#000" stroke-width="18"/>
    <path d="M370 958h284" stroke="#000" stroke-width="24" stroke-linecap="square"/>
    <path d="M558 640v122c0 38-30 69-68 69s-68-31-68-69 30-69 68-69c14 0 27 4 38 12V610h106v54z" fill="#000"/>
  </g>
  <rect x="54" y="54" width="840" height="844" fill="none" stroke="#000" stroke-width="24"/>
</svg>
